<svg xmlns="http://www.w3.org/2000/svg" viewBox="0 0 14 18"><g><g><path fill="#5283F2" d="M7.2,15c-1,0.4-2,0.8-3,1.2C4,16.2,4,16.3,4,16.4C4,17.3,5,18,6,18c1.1,0,2-0.8,2-1.7c0-0.5-0.2-0.9-0.6-1.2C7.4,15,7.3,15,7.2,15z M12.9,8.2c-0.4,0-0.7-0.2-1-0.4c-0.5-0.4-0.9-0.8-1.2-1.4c-0.4-0.6-0.7-1.2-1-1.8C8.8,3.1,7.7,2,6,1.5C5.6,1.4,5.1,1.4,4.7,1.3c-0.2-0.6-0.5-1-1.1-1.2C3-0.1,2.5,0,2,0.2c-1,0.5-1.3,1.7-0.7,2.6C1.2,2.9,1.2,3,1.1,3.1c-0.6,0.7-1,1.6-1,2.5c0,0,0,0.1,0,0.1C0,6,0,6.3,0,6.6c0.1,0.3,0.1,0.7,0.2,1c0.2,0.6,0.4,1.1,0.6,1.7c0.3,0.8,0.6,1.7,0.6,2.6c0,0.3,0,0.6-0.1,0.9c0,0.2-0.2,0.4-0.3,0.6c-0.1,0.2-0.2,0.4-0.3,0.6c-0.1,0.5,0.1,0.9,0.6,1c0.5,0.2,1,0.1,1.5-0.1c0.9-0.4,1.8-0.8,2.7-1.1c2.4-1,4.8-2,7.2-3.1c0.3-0.1,0.6-0.3,0.8-0.5c0.2-0.2,0.3-0.5,0.4-0.7c0-0.1,0-0.2,0-0.3C13.8,8.4,13.4,8.2,12.9,8.2z"/></g></g></svg>