<svg xmlns="http://www.w3.org/2000/svg" viewBox="0 0 24 18"><path fill="#90CBE2" d="M19.3,3.7c-0.1,0-0.2,0.1-0.3,0.1c-4.9,2.6-9.8,5.3-14.8,7.9c-0.2,0.1-0.3,0.1-0.5,0c-1.1-0.8-2.3-1.6-3.4-2.4C0.1,9.3,0,9.1,0,9c0-0.1,0.2-0.3,0.4-0.3c7.7-2.9,15.3-5.7,23-8.5c0.2-0.1,0.4-0.1,0.5,0.1c0.2,0.2,0.1,0.4-0.1,0.6c-3.5,5.7-7,11.3-10.4,17c-0.2,0.3-0.4,0.4-0.7,0.2c-0.9-0.6-1.8-1.2-2.7-1.8c-0.2-0.1-0.3-0.1-0.4,0c-0.9,0.6-1.8,1.2-2.7,1.8c-0.1,0.1-0.4,0.2-0.5,0.1c-0.1-0.1-0.2-0.3-0.2-0.5c0-1.2,0-2.3,0-3.5c0-0.3,0.1-0.4,0.3-0.6C10.7,10.3,14.9,7.1,19,4C19.1,3.9,19.2,3.8,19.3,3.7C19.3,3.7,19.3,3.7,19.3,3.7z"/></svg>