<svg xmlns="http://www.w3.org/2000/svg" viewBox="0 0 19 19"><path fill="#DCE1E3" d="M9.5,3.3l1.4,3.2c0.2,0.5,0.7,0.9,1.3,1l4,0.8L13.4,11c-0.4,0.4-0.6,1-0.5,1.6l0.8,3.9l-3.5-1.5c-0.2-0.1-0.5-0.2-0.7-0.2c-0.2,0-0.5,0.1-0.7,0.2l-3.5,1.5l0.8-3.9C6.2,12,6,11.4,5.6,11L2.8,8.3l4-0.8c0.6-0.1,1-0.5,1.3-1L9.5,3.3 M9.5,0C9.2,0,8.9,0.2,8.8,0.4L6.5,5.7L0.6,6.9C0.3,6.9,0.1,7.1,0,7.4C0,7.7,0,8,0.2,8.2l4.1,4.1l-1.1,5.8c-0.1,0.3,0,0.6,0.2,0.7C3.5,18.9,3.7,19,3.9,19c0.1,0,0.2,0,0.3-0.1l5.3-2.4l5.3,2.4c0.1,0,0.2,0.1,0.3,0.1c0.2,0,0.3-0.1,0.5-0.2c0.2-0.2,0.3-0.5,0.2-0.7l-1.1-5.9l4.1-4.1C19,8,19.1,7.7,19,7.4c-0.1-0.3-0.3-0.5-0.6-0.5l-5.9-1.2l-2.3-5.3C10.1,0.2,9.8,0,9.5,0L9.5,0z"/></svg>