<svg xmlns="http://www.w3.org/2000/svg" viewBox="0 0 12 14"><path fill-rule="evenodd" clip-rule="evenodd" fill="#F9F9EA" d="M12,0.8c0,0.6,0,12,0,12.4c0,0.6-0.6,1-1.2,0.7c-0.5-0.3-9.7-5.7-10.5-6.2c-0.5-0.3-0.5-1,0-1.3C1,6,10.2,0.5,10.9,0.1C11.4-0.2,12,0.1,12,0.8z"/></svg>

<svg xmlns="http://www.w3.org/2000/svg" viewBox="0 0 12 14"><path fill-rule="evenodd" clip-rule="evenodd" fill="#DBF1F9" d="M0,13.2c0-0.6,0-12,0-12.4c0-0.6,0.6-1,1.2-0.7c0.5,0.3,9.7,5.7,10.5,6.2c0.5,0.3,0.5,1,0,1.3C11.1,8,1.8,13.5,1.1,13.9C0.6,14.2,0,13.9,0,13.2z"/></svg>