<svg xmlns="http://www.w3.org/2000/svg" viewBox="0 0 64 64"><g><path fill="#FFFFFF" d="M12,47c-1.7,0-3-1.3-3-3V12c0-1.7,1.3-3,3-3h40c1.7,0,3,1.3,3,3v32c0,1.7-1.3,3-3,3H12z"/><path fill="#DCE1E3" d="M52,10c1.1,0,2,0.9,2,2v32c0,1.1-0.9,2-2,2H12c-1.1,0-2-0.9-2-2V12c0-1.1,0.9-2,2-2H52 M52,8H12c-2.2,0-4,1.8-4,4v32c0,2.2,1.8,4,4,4h40c2.2,0,4-1.8,4-4V12C56,9.8,54.2,8,52,8L52,8z"/></g><polygon fill="#DCE1E3" points="36,56 32,48 48,48 "/><path fill="#EF6060" d="M40,32c0,4.4-3.6,8-8,8s-8-4-8-8c0,0,3.6,0,8,0S40,32,40,32z"/><path fill="#5283F2" d="M48,20c0,2.2-2.7,4-6,4s-6-1.8-6-4c0-1.2,0.8-2.3,2-3c-0.5,2.6,0.4,3.6,2,4.4S45.4,22.7,48,20z"/><ellipse fill="#5283F2" cx="22" cy="20" rx="6" ry="4"/></svg>